<svg id="visual" viewBox="0 0 1920 1080" width="1920" height="1080" xmlns="http://www.w3.org/2000/svg" xmlns:xlink="http://www.w3.org/1999/xlink" version="1.1"><g stroke-width="1" stroke-linejoin="bevel"><path d="M992 544L991 674L1067.1 572Z" fill="#112e42" stroke="#112e42"></path><path d="M991 674L1098.1 665L1067.1 572Z" fill="#205a7a" stroke="#205a7a"></path><path d="M991 674L1052.1 773L1098.1 665Z" fill="#15384f" stroke="#15384f"></path><path d="M992 544L862.9 721L991 674Z" fill="#1d4e6b" stroke="#1d4e6b"></path><path d="M991 674L917 817L1052.1 773Z" fill="#19435d" stroke="#19435d"></path><path d="M1225.3 543L1095.1 440L1067.1 572Z" fill="#1d4e6b" stroke="#1d4e6b"></path><path d="M1067.1 572L1095.1 440L992 544Z" fill="#112e42" stroke="#112e42"></path><path d="M1095.1 440L998 403L992 544Z" fill="#081a28" stroke="#081a28"></path><path d="M992 544L783.9 546L862.9 721Z" fill="#00101c" stroke="#00101c"></path><path d="M1269.3 654L1225.3 543L1098.1 665Z" fill="#00101c" stroke="#00101c"></path><path d="M1098.1 665L1225.3 543L1067.1 572Z" fill="#297ea6" stroke="#297ea6"></path><path d="M862.9 721L917 817L991 674Z" fill="#1d4e6b" stroke="#1d4e6b"></path><path d="M799.9 379L783.9 546L992 544Z" fill="#205a7a" stroke="#205a7a"></path><path d="M1262.3 844L1269.3 654L1098.1 665Z" fill="#0c2435" stroke="#0c2435"></path><path d="M1225.3 543L1198.3 420L1095.1 440Z" fill="#297ea6" stroke="#297ea6"></path><path d="M1059.1 271L998 297L998 403Z" fill="#246688" stroke="#246688"></path><path d="M1366.4 513L1198.3 420L1225.3 543Z" fill="#112e42" stroke="#112e42"></path><path d="M917 817L1086.1 903L1052.1 773Z" fill="#297ea6" stroke="#297ea6"></path><path d="M1052.1 773L1262.3 844L1098.1 665Z" fill="#277297" stroke="#277297"></path><path d="M692.7 822L814.9 846L862.9 721Z" fill="#205a7a" stroke="#205a7a"></path><path d="M862.9 721L814.9 846L917 817Z" fill="#277297" stroke="#277297"></path><path d="M917 817L1000 954L1086.1 903Z" fill="#00101c" stroke="#00101c"></path><path d="M783.9 546L705.7 665L862.9 721Z" fill="#205a7a" stroke="#205a7a"></path><path d="M821.9 296L799.9 379L998 403Z" fill="#15384f" stroke="#15384f"></path><path d="M998 403L799.9 379L992 544Z" fill="#297ea6" stroke="#297ea6"></path><path d="M783.9 546L638.7 541L705.7 665Z" fill="#205a7a" stroke="#205a7a"></path><path d="M1059.1 271L998 403L1095.1 440Z" fill="#205a7a" stroke="#205a7a"></path><path d="M1198.3 420L1059.1 271L1095.1 440Z" fill="#19435d" stroke="#19435d"></path><path d="M998 297L821.9 296L998 403Z" fill="#1d4e6b" stroke="#1d4e6b"></path><path d="M1086.1 903L1262.3 844L1052.1 773Z" fill="#0c2435" stroke="#0c2435"></path><path d="M809.9 947L1000 954L917 817Z" fill="#081a28" stroke="#081a28"></path><path d="M1086.1 903L1188.3 986L1262.3 844Z" fill="#0c2435" stroke="#0c2435"></path><path d="M960 158L821.9 296L998 297Z" fill="#246688" stroke="#246688"></path><path d="M640.7 394L638.7 541L783.9 546Z" fill="#00101c" stroke="#00101c"></path><path d="M1394.4 636L1366.4 513L1269.3 654Z" fill="#297ea6" stroke="#297ea6"></path><path d="M1269.3 654L1366.4 513L1225.3 543Z" fill="#081a28" stroke="#081a28"></path><path d="M1198.3 420L1199.3 256L1059.1 271Z" fill="#081a28" stroke="#081a28"></path><path d="M640.7 394L783.9 546L799.9 379Z" fill="#205a7a" stroke="#205a7a"></path><path d="M705.7 665L692.7 822L862.9 721Z" fill="#246688" stroke="#246688"></path><path d="M814.9 846L809.9 947L917 817Z" fill="#277297" stroke="#277297"></path><path d="M575.6 813L692.7 822L705.7 665Z" fill="#297ea6" stroke="#297ea6"></path><path d="M1358.4 823L1394.4 636L1269.3 654Z" fill="#1d4e6b" stroke="#1d4e6b"></path><path d="M685.7 953L809.9 947L814.9 846Z" fill="#1d4e6b" stroke="#1d4e6b"></path><path d="M1381.4 296L1199.3 256L1198.3 420Z" fill="#246688" stroke="#246688"></path><path d="M1059.1 271L960 158L998 297Z" fill="#112e42" stroke="#112e42"></path><path d="M1411.4 919L1358.4 823L1262.3 844Z" fill="#081a28" stroke="#081a28"></path><path d="M1262.3 844L1358.4 823L1269.3 654Z" fill="#081a28" stroke="#081a28"></path><path d="M1058.1 1080L1086.1 903L1000 954Z" fill="#112e42" stroke="#112e42"></path><path d="M1058.1 1080L1188.3 986L1086.1 903Z" fill="#00101c" stroke="#00101c"></path><path d="M698.7 232L640.7 394L799.9 379Z" fill="#19435d" stroke="#19435d"></path><path d="M569.6 584L571.6 652L638.7 541Z" fill="#246688" stroke="#246688"></path><path d="M638.7 541L571.6 652L705.7 665Z" fill="#0c2435" stroke="#0c2435"></path><path d="M588.6 385L569.6 584L638.7 541Z" fill="#19435d" stroke="#19435d"></path><path d="M1366.4 513L1405.4 392L1198.3 420Z" fill="#1d4e6b" stroke="#1d4e6b"></path><path d="M1550.6 419L1405.4 392L1366.4 513Z" fill="#297ea6" stroke="#297ea6"></path><path d="M1142.1 166L960 158L1059.1 271Z" fill="#277297" stroke="#277297"></path><path d="M546.6 256L588.6 385L640.7 394Z" fill="#0c2435" stroke="#0c2435"></path><path d="M1233.3 169L1142.1 166L1199.3 256Z" fill="#277297" stroke="#277297"></path><path d="M1199.3 256L1142.1 166L1059.1 271Z" fill="#081a28" stroke="#081a28"></path><path d="M692.7 822L685.7 953L814.9 846Z" fill="#081a28" stroke="#081a28"></path><path d="M915 1080L1058.1 1080L1000 954Z" fill="#1d4e6b" stroke="#1d4e6b"></path><path d="M575.6 813L685.7 953L692.7 822Z" fill="#277297" stroke="#277297"></path><path d="M915 1080L1000 954L809.9 947Z" fill="#0c2435" stroke="#0c2435"></path><path d="M698.7 232L799.9 379L821.9 296Z" fill="#081a28" stroke="#081a28"></path><path d="M640.7 394L588.6 385L638.7 541Z" fill="#205a7a" stroke="#205a7a"></path><path d="M559.6 988L575.6 813L425.4 902Z" fill="#00101c" stroke="#00101c"></path><path d="M571.6 652L575.6 813L705.7 665Z" fill="#246688" stroke="#246688"></path><path d="M842.9 1080L915 1080L809.9 947Z" fill="#081a28" stroke="#081a28"></path><path d="M1405.4 392L1381.4 296L1198.3 420Z" fill="#0c2435" stroke="#0c2435"></path><path d="M806.9 122L698.7 232L821.9 296Z" fill="#0c2435" stroke="#0c2435"></path><path d="M1381.4 296L1233.3 169L1199.3 256Z" fill="#19435d" stroke="#19435d"></path><path d="M915 0L806.9 122L960 158Z" fill="#246688" stroke="#246688"></path><path d="M685.7 953L842.9 1080L809.9 947Z" fill="#19435d" stroke="#19435d"></path><path d="M1532.6 629L1514.6 577L1394.4 636Z" fill="#205a7a" stroke="#205a7a"></path><path d="M1394.4 636L1514.6 577L1366.4 513Z" fill="#1d4e6b" stroke="#1d4e6b"></path><path d="M1405.4 392L1511.6 253L1381.4 296Z" fill="#246688" stroke="#246688"></path><path d="M1188.3 986L1411.4 919L1262.3 844Z" fill="#297ea6" stroke="#297ea6"></path><path d="M1519.6 824L1532.6 629L1394.4 636Z" fill="#205a7a" stroke="#205a7a"></path><path d="M1237.3 1080L1411.4 919L1188.3 986Z" fill="#0c2435" stroke="#0c2435"></path><path d="M1519.6 824L1394.4 636L1358.4 823Z" fill="#1d4e6b" stroke="#1d4e6b"></path><path d="M1058.1 1080L1237.3 1080L1188.3 986Z" fill="#15384f" stroke="#15384f"></path><path d="M1050.1 0L960 158L1142.1 166Z" fill="#112e42" stroke="#112e42"></path><path d="M960 158L806.9 122L821.9 296Z" fill="#19435d" stroke="#19435d"></path><path d="M1411.4 919L1519.6 824L1358.4 823Z" fill="#19435d" stroke="#19435d"></path><path d="M1478.6 958L1519.6 824L1411.4 919Z" fill="#19435d" stroke="#19435d"></path><path d="M1620.7 495L1550.6 419L1514.6 577Z" fill="#15384f" stroke="#15384f"></path><path d="M1514.6 577L1550.6 419L1366.4 513Z" fill="#205a7a" stroke="#205a7a"></path><path d="M1381.4 296L1400.4 90L1233.3 169Z" fill="#246688" stroke="#246688"></path><path d="M1620.7 495L1514.6 577L1532.6 629Z" fill="#112e42" stroke="#112e42"></path><path d="M586.6 168L546.6 256L698.7 232Z" fill="#081a28" stroke="#081a28"></path><path d="M698.7 232L546.6 256L640.7 394Z" fill="#00101c" stroke="#00101c"></path><path d="M412.4 549L571.6 652L569.6 584Z" fill="#205a7a" stroke="#205a7a"></path><path d="M431.4 718L575.6 813L571.6 652Z" fill="#15384f" stroke="#15384f"></path><path d="M1394.4 1080L1478.6 958L1411.4 919Z" fill="#00101c" stroke="#00101c"></path><path d="M575.6 813L559.6 988L685.7 953Z" fill="#1d4e6b" stroke="#1d4e6b"></path><path d="M685.7 953L640.7 1080L842.9 1080Z" fill="#112e42" stroke="#112e42"></path><path d="M431.4 718L571.6 652L412.4 549Z" fill="#1d4e6b" stroke="#1d4e6b"></path><path d="M412.4 549L569.6 584L588.6 385Z" fill="#0c2435" stroke="#0c2435"></path><path d="M559.6 988L640.7 1080L685.7 953Z" fill="#112e42" stroke="#112e42"></path><path d="M383.4 360L412.4 549L588.6 385Z" fill="#246688" stroke="#246688"></path><path d="M1676.7 767L1603.7 713L1519.6 824Z" fill="#246688" stroke="#246688"></path><path d="M1519.6 824L1603.7 713L1532.6 629Z" fill="#205a7a" stroke="#205a7a"></path><path d="M806.9 122L668.7 108L698.7 232Z" fill="#00101c" stroke="#00101c"></path><path d="M425.4 902L443.4 826L252.3 812Z" fill="#00101c" stroke="#00101c"></path><path d="M431.4 718L443.4 826L575.6 813Z" fill="#00101c" stroke="#00101c"></path><path d="M1237.3 1080L1394.4 1080L1411.4 919Z" fill="#297ea6" stroke="#297ea6"></path><path d="M1278.3 0L1142.1 166L1233.3 169Z" fill="#246688" stroke="#246688"></path><path d="M1278.3 0L1050.1 0L1142.1 166Z" fill="#00101c" stroke="#00101c"></path><path d="M806.9 122L657.7 0L668.7 108Z" fill="#19435d" stroke="#19435d"></path><path d="M668.7 108L586.6 168L698.7 232Z" fill="#19435d" stroke="#19435d"></path><path d="M546.6 256L383.4 360L588.6 385Z" fill="#112e42" stroke="#112e42"></path><path d="M1550.6 419L1511.6 253L1405.4 392Z" fill="#246688" stroke="#246688"></path><path d="M1050.1 0L915 0L960 158Z" fill="#1d4e6b" stroke="#1d4e6b"></path><path d="M1603.7 713L1620.7 495L1532.6 629Z" fill="#246688" stroke="#246688"></path><path d="M1550.6 419L1612.7 416L1511.6 253Z" fill="#081a28" stroke="#081a28"></path><path d="M915 0L862.9 0L806.9 122Z" fill="#112e42" stroke="#112e42"></path><path d="M1620.7 495L1612.7 416L1550.6 419Z" fill="#0c2435" stroke="#0c2435"></path><path d="M1482.6 146L1400.4 90L1381.4 296Z" fill="#246688" stroke="#246688"></path><path d="M443.4 826L425.4 902L575.6 813Z" fill="#0c2435" stroke="#0c2435"></path><path d="M559.6 988L549.6 1080L640.7 1080Z" fill="#081a28" stroke="#081a28"></path><path d="M252.3 812L443.4 826L431.4 718Z" fill="#297ea6" stroke="#297ea6"></path><path d="M451.4 1080L549.6 1080L559.6 988Z" fill="#1d4e6b" stroke="#1d4e6b"></path><path d="M1607.7 178L1482.6 146L1511.6 253Z" fill="#112e42" stroke="#112e42"></path><path d="M1511.6 253L1482.6 146L1381.4 296Z" fill="#112e42" stroke="#112e42"></path><path d="M1400.4 90L1278.3 0L1233.3 169Z" fill="#0c2435" stroke="#0c2435"></path><path d="M1333.4 0L1278.3 0L1400.4 90Z" fill="#112e42" stroke="#112e42"></path><path d="M1394.4 1080L1482.6 1080L1478.6 958Z" fill="#1d4e6b" stroke="#1d4e6b"></path><path d="M1478.6 958L1615.7 910L1519.6 824Z" fill="#00101c" stroke="#00101c"></path><path d="M407.4 247L383.4 360L546.6 256Z" fill="#205a7a" stroke="#205a7a"></path><path d="M412.4 549L287.3 692L431.4 718Z" fill="#112e42" stroke="#112e42"></path><path d="M1482.6 1080L1615.7 910L1478.6 958Z" fill="#246688" stroke="#246688"></path><path d="M1603.7 713L1796.9 561L1620.7 495Z" fill="#15384f" stroke="#15384f"></path><path d="M1615.7 910L1676.7 767L1519.6 824Z" fill="#00101c" stroke="#00101c"></path><path d="M1783.9 410L1688.7 312L1612.7 416Z" fill="#19435d" stroke="#19435d"></path><path d="M1472.6 0L1333.4 0L1400.4 90Z" fill="#112e42" stroke="#112e42"></path><path d="M373.4 150L407.4 247L586.6 168Z" fill="#112e42" stroke="#112e42"></path><path d="M586.6 168L407.4 247L546.6 256Z" fill="#0c2435" stroke="#0c2435"></path><path d="M582.6 0L586.6 168L668.7 108Z" fill="#297ea6" stroke="#297ea6"></path><path d="M862.9 0L657.7 0L806.9 122Z" fill="#081a28" stroke="#081a28"></path><path d="M248.3 577L412.4 549L272.3 409Z" fill="#112e42" stroke="#112e42"></path><path d="M248.3 577L287.3 692L412.4 549Z" fill="#112e42" stroke="#112e42"></path><path d="M257.3 983L451.4 1080L425.4 902Z" fill="#112e42" stroke="#112e42"></path><path d="M425.4 902L451.4 1080L559.6 988Z" fill="#277297" stroke="#277297"></path><path d="M1688.7 312L1607.7 178L1511.6 253Z" fill="#00101c" stroke="#00101c"></path><path d="M1482.6 146L1472.6 0L1400.4 90Z" fill="#205a7a" stroke="#205a7a"></path><path d="M1688.7 312L1511.6 253L1612.7 416Z" fill="#081a28" stroke="#081a28"></path><path d="M1783.9 410L1612.7 416L1620.7 495Z" fill="#081a28" stroke="#081a28"></path><path d="M657.7 0L582.6 0L668.7 108Z" fill="#19435d" stroke="#19435d"></path><path d="M1784.9 842L1752.9 715L1676.7 767Z" fill="#00101c" stroke="#00101c"></path><path d="M1676.7 767L1752.9 715L1603.7 713Z" fill="#19435d" stroke="#19435d"></path><path d="M272.3 409L412.4 549L383.4 360Z" fill="#112e42" stroke="#112e42"></path><path d="M1603.7 0L1472.6 0L1482.6 146Z" fill="#1d4e6b" stroke="#1d4e6b"></path><path d="M311.3 294L272.3 409L383.4 360Z" fill="#15384f" stroke="#15384f"></path><path d="M311.3 294L383.4 360L407.4 247Z" fill="#1d4e6b" stroke="#1d4e6b"></path><path d="M373.4 150L311.3 294L407.4 247Z" fill="#15384f" stroke="#15384f"></path><path d="M114.1 720L252.3 812L287.3 692Z" fill="#297ea6" stroke="#297ea6"></path><path d="M287.3 692L252.3 812L431.4 718Z" fill="#112e42" stroke="#112e42"></path><path d="M417.4 0L373.4 150L586.6 168Z" fill="#112e42" stroke="#112e42"></path><path d="M1752.9 715L1796.9 561L1603.7 713Z" fill="#277297" stroke="#277297"></path><path d="M1796.9 561L1783.9 410L1620.7 495Z" fill="#19435d" stroke="#19435d"></path><path d="M1793.9 129L1603.7 0L1607.7 178Z" fill="#246688" stroke="#246688"></path><path d="M1607.7 178L1603.7 0L1482.6 146Z" fill="#205a7a" stroke="#205a7a"></path><path d="M1615.7 910L1784.9 842L1676.7 767Z" fill="#112e42" stroke="#112e42"></path><path d="M1920 715L1920 539L1796.9 561Z" fill="#0c2435" stroke="#0c2435"></path><path d="M1785.9 907L1784.9 842L1615.7 910Z" fill="#297ea6" stroke="#297ea6"></path><path d="M1482.6 1080L1680.7 1080L1615.7 910Z" fill="#00101c" stroke="#00101c"></path><path d="M1680.7 1080L1785.9 907L1615.7 910Z" fill="#00101c" stroke="#00101c"></path><path d="M1920 715L1796.9 561L1752.9 715Z" fill="#15384f" stroke="#15384f"></path><path d="M252.3 812L257.3 983L425.4 902Z" fill="#112e42" stroke="#112e42"></path><path d="M582.6 0L417.4 0L586.6 168Z" fill="#19435d" stroke="#19435d"></path><path d="M163.1 386L272.3 409L154.1 303Z" fill="#297ea6" stroke="#297ea6"></path><path d="M1799.9 255L1607.7 178L1688.7 312Z" fill="#246688" stroke="#246688"></path><path d="M272.3 409L149.1 539L248.3 577Z" fill="#15384f" stroke="#15384f"></path><path d="M248.3 577L114.1 720L287.3 692Z" fill="#0c2435" stroke="#0c2435"></path><path d="M252.3 812L126.1 978L257.3 983Z" fill="#00101c" stroke="#00101c"></path><path d="M163.1 386L149.1 539L272.3 409Z" fill="#246688" stroke="#246688"></path><path d="M272.3 409L311.3 294L154.1 303Z" fill="#081a28" stroke="#081a28"></path><path d="M1920 387L1799.9 255L1783.9 410Z" fill="#00101c" stroke="#00101c"></path><path d="M1783.9 410L1799.9 255L1688.7 312Z" fill="#297ea6" stroke="#297ea6"></path><path d="M257.3 983L280.3 1080L451.4 1080Z" fill="#277297" stroke="#277297"></path><path d="M125.1 1080L280.3 1080L257.3 983Z" fill="#246688" stroke="#246688"></path><path d="M154.1 303L311.3 294L154.1 135Z" fill="#205a7a" stroke="#205a7a"></path><path d="M1680.7 1080L1769.9 1080L1785.9 907Z" fill="#246688" stroke="#246688"></path><path d="M92.1 781L114.1 720L0 790Z" fill="#081a28" stroke="#081a28"></path><path d="M149.1 539L114.1 720L248.3 577Z" fill="#246688" stroke="#246688"></path><path d="M256.3 89L311.3 294L373.4 150Z" fill="#277297" stroke="#277297"></path><path d="M0 502L0 635L149.1 539Z" fill="#19435d" stroke="#19435d"></path><path d="M1920 715L1752.9 715L1920 790Z" fill="#1d4e6b" stroke="#1d4e6b"></path><path d="M1796.9 561L1920 539L1783.9 410Z" fill="#0c2435" stroke="#0c2435"></path><path d="M1752.9 715L1784.9 842L1920 790Z" fill="#0c2435" stroke="#0c2435"></path><path d="M1920 790L1784.9 842L1920 946Z" fill="#246688" stroke="#246688"></path><path d="M276.3 0L256.3 89L373.4 150Z" fill="#19435d" stroke="#19435d"></path><path d="M1799.9 255L1793.9 129L1607.7 178Z" fill="#1d4e6b" stroke="#1d4e6b"></path><path d="M1920 150L1793.9 129L1799.9 255Z" fill="#1d4e6b" stroke="#1d4e6b"></path><path d="M1920 946L1784.9 842L1785.9 907Z" fill="#19435d" stroke="#19435d"></path><path d="M0 635L114.1 720L149.1 539Z" fill="#15384f" stroke="#15384f"></path><path d="M114.1 720L92.1 781L252.3 812Z" fill="#277297" stroke="#277297"></path><path d="M1920 539L1920 387L1783.9 410Z" fill="#205a7a" stroke="#205a7a"></path><path d="M417.4 0L276.3 0L373.4 150Z" fill="#277297" stroke="#277297"></path><path d="M256.3 89L154.1 135L311.3 294Z" fill="#19435d" stroke="#19435d"></path><path d="M92.1 781L126.1 978L252.3 812Z" fill="#277297" stroke="#277297"></path><path d="M1920 387L1920 280L1799.9 255Z" fill="#246688" stroke="#246688"></path><path d="M1769.9 1080L1920 946L1785.9 907Z" fill="#205a7a" stroke="#205a7a"></path><path d="M152.1 0L154.1 135L256.3 89Z" fill="#1d4e6b" stroke="#1d4e6b"></path><path d="M0 502L149.1 539L0 448Z" fill="#205a7a" stroke="#205a7a"></path><path d="M1920 0L1792.9 0L1793.9 129Z" fill="#112e42" stroke="#112e42"></path><path d="M1793.9 129L1792.9 0L1603.7 0Z" fill="#00101c" stroke="#00101c"></path><path d="M126.1 978L125.1 1080L257.3 983Z" fill="#112e42" stroke="#112e42"></path><path d="M0 1080L125.1 1080L126.1 978Z" fill="#00101c" stroke="#00101c"></path><path d="M149.1 539L163.1 386L0 448Z" fill="#1d4e6b" stroke="#1d4e6b"></path><path d="M92.1 781L0 973L126.1 978Z" fill="#205a7a" stroke="#205a7a"></path><path d="M0 448L163.1 386L154.1 303Z" fill="#246688" stroke="#246688"></path><path d="M1920 280L1920 150L1799.9 255Z" fill="#205a7a" stroke="#205a7a"></path><path d="M0 235L0 448L154.1 303Z" fill="#1d4e6b" stroke="#1d4e6b"></path><path d="M1769.9 1080L1920 1080L1920 946Z" fill="#1d4e6b" stroke="#1d4e6b"></path><path d="M0 635L0 790L114.1 720Z" fill="#205a7a" stroke="#205a7a"></path><path d="M276.3 0L152.1 0L256.3 89Z" fill="#1d4e6b" stroke="#1d4e6b"></path><path d="M154.1 135L0 235L154.1 303Z" fill="#15384f" stroke="#15384f"></path><path d="M0 790L0 973L92.1 781Z" fill="#15384f" stroke="#15384f"></path><path d="M0 95L0 235L154.1 135Z" fill="#19435d" stroke="#19435d"></path><path d="M1920 150L1920 0L1793.9 129Z" fill="#297ea6" stroke="#297ea6"></path><path d="M0 973L0 1080L126.1 978Z" fill="#00101c" stroke="#00101c"></path><path d="M152.1 0L0 95L154.1 135Z" fill="#246688" stroke="#246688"></path><path d="M152.1 0L0 0L0 95Z" fill="#15384f" stroke="#15384f"></path></g></svg>